<svg xmlns="http://www.w3.org/2000/svg" viewBox="0 0 36 36">
  <path fill="#343434" d="M35 26c0 2.209-1.791 4-4 4H5c-2.209 0-4-1.791-4-4V6.313C1 4.104 6.791 0 9 0h20.625C32.719 0 35 2.312 35 5.375V26z"/>
  <path fill="#FAE8DB" d="M33 30c0 2.209-1.791 4-4 4H7c-2.209 0-4-1.791-4-4V6c0-4.119-.021-4 5-4h21c2.209 0 4 1.791 4 4v24z"/>
  <path fill="#AC7C48" d="M31 32c0 2.209-1.791 4-4 4H6c-2.209 0-4-1.791-4-4V10c0-2.209 1.791-4 4-4h21c2.209 0 4 1.791 4 4v22z"/>
  <path fill="#202020" d="M29 32c0 2.209-1.791 4-4 4H6c-2.209 0-4-1.791-4-4V12c0-2.209 1.791-4 4-4h19.335C27.544 8 29 9.456 29 11.665V32z"/>
  <path fill="#343434" d="M6 6C4.312 6 4.269 4.078 5 3.25 5.832 2.309 7.125 2 9.438 2H11V0H8.281C4.312 0 1 2.5 1 5.375V32c0 2.209 1.791 4 4 4h2V6H6z"/>
  <path xmlns="http://www.w3.org/2000/svg" fill="#E462FF" d="M17,17 C17.5,16 18.5,16 19,17 L23,25 C23.5,26 23,27 22,27 L14,27 C13,27 12.5,26 13,25 z M18,19 L15,25 L21,25 z"/>
</svg>
