<svg xmlns="http://www.w3.org/2000/svg" viewBox="0 0 36 36">
  <path fill="#35A8A9" d="M36 25V4s0-4-4-4H4S0 0 0 4v20.922L36 25z"/>
  <path fill="#288300" d="M4 36h28c4 0 4-4 4-4v-9H0v9c0 4 4 4 4 4z"/>
  <path fill="#909090" d="M17,11 C17.5,10.5 18.5,10.5 19,11 L32,24 C33,25 32.5,26 31.5,26 L4.5,26 C3.5,26 3,25 4,24 z"/>
  <path fill="#A0A0A0" d="M17,11 C17.5,10.5 18.5,10.5 19,11 L31,23 L5,23 z"/>
  <path fill="#B0B0B0" d="M17,11 C17.5,10.5 18.5,10.5 19,11 L28,20 L8,20 z"/>
  <path fill="#C0C0C0" d="M17,11 C17.5,10.5 18.5,10.5 19,11 L25,17 L11,17 z"/>
  <path fill="#D0D0D0" d="M17,11 C17.5,10.5 18.5,10.5 19,11 L22,14 L14,14 z"/>
  <path fill="#818181" d="M14,14 h8 l1,1 h-1 v2 h3 l1,1 h-1 v2 h3 l1,1 h-1 v2 h3 l1,1 h-1 v2 h-1 v-2 h-5 v2 h-1 v-2 h-5 v2 h-1 v-2 h-5 v2 h-1 v-2 h-5 v2 h-1 v-2 h-2 l1,-1 h4 v-2 h-2 l1,-1 h4 v-2 h-2 l1,-1 h4 v-2 h-2 z M16,15 v2 h5 v-2 z M13,18 v2 h5 v-2 z M19,18 v2 h5 v-2 z M10,21 v2 h5 v-2 z M16,21 v2 h5 v-2 z M22,21 v2 h5 v-2 z"/>
</svg>
